# xmcd CD database file
#
# Track frame offsets:
#        150
#        21926
#        48888
#        74577
#        89014
#        111261
#        132155
#        162851
#        182482
#        200555
#        226572
#
# Disc length: 3380 seconds
#
# Revision: 0
# Processed by: cddbd v1.5.2PL0 Copyright (c) Steve Scherf et al.
# Submitted via: CUERipper 2.1.1
#
DISCID=900d320b
DTITLE=Djeli Moussa Diawara and Bob Brozman - Ocean Blues
DYEAR=1900
DGENRE=
TTITLE0=Kanun
TTITLE1=Maloyan Devil
TTITLE2=Almany
TTITLE3=Dakon
TTITLE4=Uncle Joe
TTITLE5=Hip Hop
TTITLE6=Nkaminyo Yelena Ma
TTITLE7=Voyage Dans Le Desert
TTITLE8=Malaga
TTITLE9=Sabari
TTITLE10=Malaika
EXTD=
EXTT0=
EXTT1=
EXTT2=
EXTT3=
EXTT4=
EXTT5=
EXTT6=
EXTT7=
EXTT8=
EXTT9=
EXTT10=
PLAYORDER=
